<svg width="48" height="37" viewBox="0 0 48 37" fill="none" xmlns="http://www.w3.org/2000/svg">
<path d="M12.3333 13.3334C13.1925 13.3334 13.8889 14.0298 13.8889 14.8889V18C13.8889 18.8592 13.1925 19.5556 12.3333 19.5556C11.4742 19.5556 10.7778 18.8592 10.7778 18V14.8889C10.7778 14.0298 11.4742 13.3334 12.3333 13.3334Z" fill="white"/>
<path d="M20.1111 13.3334C20.9702 13.3334 21.6667 14.0298 21.6667 14.8889V18C21.6667 18.8592 20.9702 19.5556 20.1111 19.5556C19.252 19.5556 18.5555 18.8592 18.5555 18V14.8889C18.5555 14.0298 19.252 13.3334 20.1111 13.3334Z" fill="white"/>
<path d="M29.4445 14.8889C29.4445 14.0298 28.748 13.3334 27.8889 13.3334C27.0298 13.3334 26.3333 14.0298 26.3333 14.8889V18C26.3333 18.8592 27.0298 19.5556 27.8889 19.5556C28.748 19.5556 29.4445 18.8592 29.4445 18V14.8889Z" fill="white"/>
<path d="M35.6667 13.3334C36.5258 13.3334 37.2222 14.0298 37.2222 14.8889V18C37.2222 18.8592 36.5258 19.5556 35.6667 19.5556C34.8075 19.5556 34.1111 18.8592 34.1111 18V14.8889C34.1111 14.0298 34.8075 13.3334 35.6667 13.3334Z" fill="white"/>
<path d="M17.7778 24.2222C17.7778 23.363 17.0813 22.6666 16.2222 22.6666C15.3631 22.6666 14.6667 23.363 14.6667 24.2222V27.3333C14.6667 28.1924 15.3631 28.8888 16.2222 28.8888C17.0813 28.8888 17.7778 28.1924 17.7778 27.3333V24.2222Z" fill="white"/>
<path d="M24 22.6666C24.8591 22.6666 25.5556 23.363 25.5556 24.2222V27.3333C25.5556 28.1924 24.8591 28.8888 24 28.8888C23.1409 28.8888 22.4445 28.1924 22.4445 27.3333V24.2222C22.4445 23.363 23.1409 22.6666 24 22.6666Z" fill="white"/>
<path d="M33.3333 24.2222C33.3333 23.363 32.6369 22.6666 31.7778 22.6666C30.9187 22.6666 30.2222 23.363 30.2222 24.2222V27.3333C30.2222 28.1924 30.9187 28.8888 31.7778 28.8888C32.6369 28.8888 33.3333 28.1924 33.3333 27.3333V24.2222Z" fill="white"/>
<path fill-rule="evenodd" clip-rule="evenodd" d="M2.52194 9.95843C1.42925 9.47574 0.666672 8.38249 0.666672 7.11114V4.00003C0.666672 2.28181 2.05956 0.888916 3.77778 0.888916H44.2222C45.9405 0.888916 47.3333 2.28181 47.3333 4.00003V7.11114C47.3333 8.38249 46.5708 9.47574 45.478 9.95843L42.9599 33.8813C42.7931 35.4647 41.458 36.6667 39.8659 36.6667H8.13415C6.54202 36.6667 5.20681 35.4647 5.04013 33.8813L2.52194 9.95843ZM3.77778 4.00003H44.2222V7.11114H3.77778V4.00003ZM5.67802 10.2222L8.13415 33.5556H39.8659L42.322 10.2222H5.67802Z" fill="white"/>
</svg>
