<svg width="48" height="48" viewBox="0 0 48 48" fill="none" xmlns="http://www.w3.org/2000/svg">
<path fill-rule="evenodd" clip-rule="evenodd" d="M13.2611 12.7461C13.2307 12.775 13.2007 12.804 13.1707 12.8331C10.2559 15.6603 8.44445 19.6187 8.44445 24.0001C8.44445 25.6186 8.69167 27.1796 9.15041 28.647C9.49394 29.746 9.95611 30.7924 10.5219 31.7716C9.3201 31.7998 8.11738 31.729 6.92883 31.5607C5.04898 31.2947 3.20461 30.785 1.45542 30.038C0.940947 28.112 0.666672 26.0881 0.666672 24.0001C0.666672 16.1679 4.52562 9.23696 10.4459 5.00493C11.6081 4.17412 12.8499 3.44732 14.1574 2.83813C13.7662 4.14255 13.4843 5.47874 13.3124 6.82894C13.1523 8.08633 13.0876 9.35585 13.1187 10.6231C13.1362 11.3324 13.1836 12.0408 13.2611 12.7461ZM5.33334 24.0001C5.33334 25.4401 5.49692 26.8436 5.80666 28.1925C5.23686 28.0619 4.67347 27.905 4.11893 27.7216C3.8951 26.5171 3.77778 25.2735 3.77778 24.0001C3.77778 18.2643 6.16576 13.083 10.0065 9.40065C9.99084 10.1347 10.0037 10.8692 10.0452 11.602C7.11664 14.8967 5.33334 19.2423 5.33334 24.0001Z" fill="white"/>
<path fill-rule="evenodd" clip-rule="evenodd" d="M12.746 34.739C12.7748 34.7692 12.8039 34.7994 12.833 34.8292C15.6602 37.7442 19.6184 39.5556 24 39.5556C25.6188 39.5556 27.1798 39.3083 28.6475 38.8496C29.7464 38.5059 30.7929 38.0438 31.772 37.4779C31.8003 38.6797 31.7295 39.8824 31.5612 41.071C31.2952 42.9508 30.7855 44.7952 30.0385 46.5444C28.1126 47.059 26.0883 47.3334 24 47.3334C16.1678 47.3334 9.23671 43.4744 5.0047 37.5539C4.17391 36.3918 3.44712 35.15 2.83795 33.8425C4.14235 34.2338 5.47855 34.5156 6.82874 34.6875C8.08716 34.8477 9.35774 34.9124 10.6261 34.8812C11.3342 34.8636 12.0416 34.8163 12.746 34.739ZM24 42.6667C25.4403 42.6667 26.844 42.5031 28.1928 42.1932C28.0625 42.763 27.9055 43.3264 27.7221 43.881C26.5175 44.105 25.2737 44.2223 24 44.2223C18.2642 44.2223 13.0829 41.8342 9.4004 37.9934C10.1344 38.0091 10.869 37.9962 11.6019 37.9548C14.8966 40.8834 19.242 42.6667 24 42.6667Z" fill="white"/>
<path fill-rule="evenodd" clip-rule="evenodd" d="M34.7394 35.2535C34.7696 35.2247 34.7997 35.1957 34.8298 35.1666C37.7443 32.3395 39.5555 28.3812 39.5555 24C39.5555 22.3813 39.3084 20.8205 38.8495 19.3529C38.506 18.2539 38.0439 17.2075 37.4781 16.2283C38.6798 16.2001 39.8825 16.2709 41.0711 16.4391C42.9509 16.7052 44.7953 17.215 46.5445 17.9618C47.0591 19.8878 47.3333 21.9118 47.3333 24C47.3333 31.8321 43.4746 38.7627 37.5546 42.9948C36.3923 43.8257 35.1507 44.5525 33.8431 45.1618C34.2345 43.8573 34.5162 42.5211 34.6881 41.1709C34.8481 39.9132 34.9128 38.6434 34.8816 37.3758C34.8641 36.6667 34.8169 35.9587 34.7394 35.2535ZM42.6667 24C42.6667 22.5599 42.503 21.1563 42.1933 19.8075C42.7631 19.9378 43.3265 20.0949 43.8811 20.2782C44.1049 21.4827 44.2222 22.7265 44.2222 24C44.2222 29.7355 41.8344 34.9166 37.9939 38.5991C38.0096 37.865 37.9967 37.1305 37.9552 36.3976C40.8835 33.103 42.6667 28.7577 42.6667 24Z" fill="white"/>
<path fill-rule="evenodd" clip-rule="evenodd" d="M35.2028 13.2077C35.191 13.1954 35.179 13.1829 35.167 13.1706C32.3398 10.2558 28.3814 8.4444 24 8.4444C22.3813 8.4444 20.8205 8.69164 19.3529 9.15041C18.2539 9.49395 17.2075 9.95613 16.2283 10.5219C16.2001 9.32012 16.2709 8.1174 16.4392 6.92884C16.7052 5.04902 17.215 3.20462 17.962 1.45542C19.8879 0.940917 21.9118 0.666626 24 0.666626C31.8322 0.666626 38.7632 4.52554 42.9951 10.4458C43.8259 11.6081 44.5528 12.8497 45.1619 14.1573C43.8575 13.766 42.5214 13.4841 41.1712 13.3124C39.9143 13.1523 38.6451 13.0876 37.3783 13.1187C36.6686 13.1361 35.9597 13.1836 35.254 13.261C35.237 13.2431 35.2199 13.2254 35.2028 13.2077ZM24 5.33329C22.5599 5.33329 21.1563 5.49688 19.8075 5.80665C19.938 5.23685 20.0949 4.67346 20.2783 4.11892C21.4828 3.89507 22.7265 3.77774 24 3.77774C29.7358 3.77774 34.9169 6.16572 38.5995 10.0065C37.8655 9.99081 37.1309 10.0037 36.3981 10.0451C33.1034 7.11661 28.7578 5.33329 24 5.33329Z" fill="white"/>
<path d="M18.96 28.9156C20.4034 28.9156 21.6911 28.3979 22.8227 27.3628C22.6482 27.1225 22.4668 26.8693 22.2844 26.6148C21.9706 26.1767 21.6537 25.7345 21.366 25.3498C21.2821 25.421 21.1958 25.4896 21.1066 25.5556C20.5466 25.9703 19.9866 26.1778 19.4266 26.1778C18.7837 26.1778 18.2548 25.9703 17.84 25.5556C17.4253 25.1407 17.2178 24.6223 17.2178 24C17.2178 23.3985 17.4355 22.8903 17.8711 22.4756C18.3066 22.04 18.8253 21.8223 19.4266 21.8223C19.9866 21.8223 20.5364 22.04 21.0755 22.4756C21.2577 22.6103 21.4297 22.7551 21.5921 22.9096C21.683 22.9773 21.7818 23.0754 21.8892 23.2097L21.9392 23.2723C22.0706 23.4231 22.1943 23.5817 22.31 23.7482C22.6718 24.2201 23.0498 24.7333 23.4036 25.2134C23.7665 25.7057 24.1036 26.1633 24.3713 26.5062C25.6857 28.1125 27.2421 28.9156 29.04 28.9156C30.4504 28.9156 31.6015 28.4592 32.4933 27.5467C33.406 26.6341 33.8622 25.4623 33.8622 24.0311C33.8622 22.5792 33.406 21.397 32.4933 20.4845C31.6015 19.5511 30.44 19.0845 29.0089 19.0845C27.5062 19.0845 26.202 19.6115 25.096 20.6657L26.6085 22.7102C26.7007 22.6288 26.7956 22.5507 26.8933 22.4756C27.4533 22.04 28.0133 21.8223 28.5733 21.8223C29.1748 21.8223 29.6933 22.04 30.1289 22.4756C30.5644 22.8903 30.7822 23.3985 30.7822 24C30.7822 24.6223 30.5748 25.1407 30.16 25.5556C29.7453 25.9703 29.2164 26.1778 28.5733 26.1778C28.0133 26.1778 27.4533 25.9703 26.8933 25.5556C26.5372 25.2918 26.223 24.9859 25.9508 24.6383L25.9446 24.6428L25.8987 24.5706C25.7893 24.4259 25.6871 24.2744 25.5919 24.1158C25.2394 23.6121 24.8 23.0347 24.3704 22.4698C24.0572 22.0582 23.7494 21.6532 23.4837 21.2884C22.2627 19.8192 20.7652 19.0845 18.9911 19.0845C17.56 19.0845 16.3882 19.5511 15.4755 20.4845C14.5837 21.397 14.1378 22.5792 14.1378 24.0311C14.1378 25.4623 14.5837 26.6341 15.4755 27.5467C16.3882 28.4592 17.5497 28.9156 18.96 28.9156Z" fill="white"/>
</svg>
