<svg width="90" height="28" viewBox="0 0 90 28" fill="none" xmlns="http://www.w3.org/2000/svg">
<path d="M54.5963 2.99583C54.5963 1.01318 52.9349 -0.0699263 51.6683 0.003505C50.2179 -0.0699263 48.6851 1.17841 48.6943 2.98666C48.6943 4.66639 49.9518 5.97898 51.6224 5.98815C53.3572 6.00651 54.6055 4.62967 54.5963 2.99583Z" fill="white"/>
<path d="M22.782 27.0172V14.6899C22.782 10.5503 22.782 6.41977 22.7637 2.28008C22.7637 1.98168 22.7637 1.83483 22.6904 1.7626C22.6192 1.69263 22.4793 1.69263 22.2038 1.69263H17.5501C16.9626 1.69263 16.9626 1.69263 16.9626 2.30763V11.716C16.9626 11.9883 16.9626 12.1237 16.8949 12.191C16.828 12.2576 16.695 12.2576 16.4302 12.2576H6.33345C6.06726 12.2576 5.93416 12.2576 5.86762 12.191C5.80108 12.1245 5.80108 11.9914 5.80108 11.7252V2.78492C5.80108 2.70571 5.80209 2.62548 5.8031 2.54491C5.80514 2.38278 5.80721 2.21921 5.80108 2.05979C5.7919 1.7477 5.75518 1.70182 5.45228 1.70182H0.431408C0.0458946 1.70182 0.00917892 1.7477 0 2.14239V27.0907C0 27.1824 0 27.2835 0.00917892 27.3753C0.0183578 27.5129 0.091789 27.6047 0.238651 27.6047C0.348799 27.6138 0.449767 27.6138 0.559914 27.6138H5.21362C5.51194 27.6138 5.66109 27.6138 5.73567 27.5393C5.81025 27.4647 5.81025 27.3156 5.81025 27.0172V17.6822C5.81025 17.0948 5.81943 17.0948 6.37934 17.0948H16.366C16.6735 17.0948 16.8273 17.0948 16.9042 17.1717C16.981 17.2485 16.981 17.4023 16.981 17.7098V27.0815C16.981 27.5955 16.9993 27.6138 17.5042 27.6138H22.1945C22.4868 27.6138 22.6337 27.6138 22.7074 27.5405C22.782 27.4662 22.782 27.3171 22.782 27.0172Z" fill="white"/>
<path fill-rule="evenodd" clip-rule="evenodd" d="M45.6743 26.9986V17.8106C45.6743 16.3145 45.6743 14.8183 45.6927 13.3221V8.43893C45.6927 8.01669 45.656 7.97998 45.2429 7.97998H41.0207C40.6443 7.98916 40.6167 8.01669 40.6076 8.40221C40.5891 8.98967 40.5891 8.98967 40.0752 8.72347C38.0375 7.66789 35.8988 7.32828 33.65 7.74133C31.3002 8.17273 29.3359 9.3201 27.7755 11.1651C26.2425 12.9825 25.4624 15.112 25.3615 17.4986C25.3063 18.7835 25.5174 20.0411 25.9581 21.2527C26.9493 23.9789 28.7484 25.9431 31.3461 27.1364C32.6586 27.733 34.0447 28.0083 35.4857 27.9991C37.0645 27.99 38.5515 27.6321 39.9651 26.9161C40.4423 26.6683 40.4423 26.6683 40.4606 27.2282C40.4699 27.5769 40.4974 27.6045 40.8278 27.6137H45.0868C45.376 27.6137 45.523 27.6137 45.5975 27.5403C45.6743 27.4645 45.6743 27.3109 45.6743 26.9986ZM34.8983 11.982C35.1552 11.9453 35.4122 11.9177 35.6785 11.9269C37.2848 11.9453 38.68 12.5144 39.809 13.6525C40.8003 14.653 41.3603 15.883 41.4703 17.3149C41.5988 19.059 41.0665 20.5643 39.9008 21.8126C38.9461 22.8314 37.7621 23.4189 36.376 23.5841C35.0085 23.7402 33.7233 23.4832 32.576 22.7213C30.676 21.4638 29.7489 19.6556 29.8866 17.3516C30.0518 14.5889 32.1814 12.3491 34.8983 11.982Z" fill="white"/>
<path fill-rule="evenodd" clip-rule="evenodd" d="M62.3615 18.9213C61.8292 18.9213 61.8201 18.9305 61.9486 19.4536C62.5176 21.7484 64.4543 23.5199 66.7398 23.7678C68.7959 23.988 70.4757 23.2262 71.77 21.574C71.8985 21.4088 72.027 21.2436 72.1187 21.0692C72.2472 20.8122 72.4309 20.7755 72.6787 20.8213C73.0125 20.8869 73.3503 20.9448 73.6868 21.0024C73.8684 21.0334 74.0497 21.0646 74.2298 21.0966C74.9092 21.216 75.5884 21.3353 76.2768 21.4638L76.2975 21.4672C76.3475 21.4754 76.403 21.4845 76.4512 21.5006C76.7449 21.574 76.7725 21.6108 76.644 21.8952C76.2676 22.7397 75.7904 23.5291 75.2029 24.2359C73.6608 26.09 71.7241 27.3017 69.3834 27.7698C66.1708 28.4031 63.2335 27.7422 60.6726 25.6311C58.4973 23.8412 57.2672 21.5006 57.0011 18.6643C56.8176 16.7459 57.1663 14.9009 58.0566 13.1937C59.5529 10.3207 61.8843 8.49405 64.9959 7.80563C68.3554 7.07133 71.3936 7.85153 74.028 10.1095C75.9922 11.7985 77.1029 13.983 77.4517 16.5624C77.5435 17.2324 77.5893 17.9208 77.4793 18.6C77.4334 18.8662 77.415 18.9029 77.1488 18.9213C77.0758 18.9273 77.0067 18.9254 76.9363 18.9234C76.9006 18.9223 76.8647 18.9213 76.8275 18.9213H62.3615ZM72.082 15.5618C72.1922 15.5618 72.2931 15.5618 72.4033 15.5527C72.5042 15.5434 72.5594 15.4884 72.5226 15.3783C72.4951 15.2957 72.4585 15.2222 72.4217 15.1489C72.0821 14.4238 71.6139 13.7995 71.0173 13.2763C69.8332 12.2207 68.4472 11.7159 66.8959 11.8811C64.8031 12.1014 63.2886 13.2304 62.3432 15.1488C62.1504 15.5434 62.1504 15.5618 62.6002 15.5618H72.082Z" fill="white"/>
<path d="M79.7487 19.7656C79.7477 20.3163 79.7466 20.867 79.7466 21.4177C79.7466 23.281 79.7466 25.1443 79.7651 26.9893C79.7651 27.0125 79.7647 27.0357 79.764 27.0589C79.7637 27.0724 79.7633 27.086 79.763 27.0995C79.761 27.1728 79.7589 27.2464 79.7651 27.3197C79.7742 27.5492 79.811 27.5859 80.0404 27.6043H84.226C84.5106 27.6043 84.6552 27.6043 84.7285 27.5321C84.8042 27.4575 84.8042 27.3061 84.8042 26.9986V16.6079C84.8042 16.1857 84.8318 15.7543 84.9052 15.3412C85.2907 13.2668 86.7961 11.7156 88.8246 11.2842C89.201 11.2108 89.2101 11.1924 89.1458 10.8069C89.1367 10.7518 89.1275 10.7059 89.1184 10.66C88.9714 9.76967 88.8155 8.87015 88.6594 7.97061C88.6288 7.79926 88.5992 7.62793 88.5697 7.45659C88.5104 7.11391 88.4513 6.77123 88.384 6.42855C88.3381 6.18071 88.3014 6.16236 88.0628 6.19908C87.7782 6.24498 87.5028 6.32758 87.2275 6.41019C82.7481 7.70441 79.7191 11.9818 79.7466 16.4611C79.7528 17.5619 79.7507 18.6626 79.7487 19.7634V19.7656Z" fill="white"/>
<path d="M54.284 17.7831V27.0446C54.284 27.3323 54.284 27.4746 54.2129 27.5449C54.1432 27.6137 54.0056 27.6137 53.7333 27.6137H49.2631C49.0428 27.5954 48.9969 27.5587 48.9786 27.3291C48.9694 27.2191 48.9694 27.1089 48.9694 26.9987V8.61337C48.9694 8.28283 48.9694 8.11994 49.0509 8.03967C49.1299 7.96167 49.286 7.96167 49.5935 7.96167H53.9995C54.2197 7.98002 54.2565 8.01674 54.2749 8.2554C54.2809 8.33426 54.279 8.41313 54.2769 8.49464C54.2758 8.53644 54.2749 8.57902 54.2749 8.62255C54.284 11.6791 54.284 14.7357 54.284 17.7831Z" fill="white"/>
</svg>
