<svg width="66" height="21" viewBox="0 0 66 21" fill="none" xmlns="http://www.w3.org/2000/svg">
<path d="M40.101 2.20044C40.101 0.744186 38.8808 -0.051361 37.9504 0.00257443C36.8851 -0.051361 35.7593 0.86554 35.766 2.1937C35.766 3.42747 36.6896 4.39157 37.9167 4.39831C39.1909 4.41179 40.1078 3.4005 40.101 2.20044Z" fill="white"/>
<path d="M16.7334 19.844V10.7896C16.7334 7.74905 16.7334 4.71518 16.72 1.67457C16.72 1.4554 16.72 1.34754 16.6661 1.29448C16.6139 1.24308 16.5111 1.24308 16.3088 1.24308H12.8906C12.4591 1.24308 12.4591 1.24308 12.4591 1.6948V8.60528C12.4591 8.80529 12.4591 8.90473 12.4093 8.95417C12.3602 9.00304 12.2625 9.00304 12.068 9.00304H4.65193C4.45641 9.00304 4.35865 9.00304 4.30978 8.95417C4.2609 8.90529 4.2609 8.80753 4.2609 8.61202V2.04538C4.2609 1.98719 4.26164 1.92827 4.26239 1.86909C4.26389 1.75001 4.2654 1.62986 4.2609 1.51277C4.25416 1.28353 4.22719 1.24983 4.00471 1.24983H0.31687C0.0337097 1.24983 0.00674193 1.28353 0 1.57344V19.898C0 19.9654 0 20.0396 0.00674193 20.107C0.0134838 20.2081 0.0674192 20.2755 0.17529 20.2755C0.256193 20.2822 0.330355 20.2822 0.411258 20.2822H3.82941C4.04853 20.2822 4.15808 20.2823 4.21286 20.2275C4.26764 20.1727 4.26764 20.0632 4.26764 19.844V12.9875C4.26764 12.556 4.27438 12.556 4.68564 12.556H12.0209C12.2467 12.556 12.3597 12.556 12.4161 12.6125C12.4726 12.6689 12.4726 12.7819 12.4726 13.0077V19.8913C12.4726 20.2688 12.486 20.2822 12.8569 20.2822H16.3019C16.5166 20.2822 16.6245 20.2822 16.6787 20.2284C16.7334 20.1738 16.7334 20.0643 16.7334 19.844Z" fill="white"/>
<path fill-rule="evenodd" clip-rule="evenodd" d="M33.5479 19.8306V13.0819C33.5479 11.9831 33.5479 10.8841 33.5614 9.78514V6.19844C33.5614 5.88831 33.5344 5.86135 33.231 5.86135H30.1298C29.8533 5.86809 29.8331 5.88831 29.8264 6.17147C29.8128 6.60296 29.8128 6.60296 29.4353 6.40744C27.9386 5.63212 26.3677 5.38267 24.716 5.68606C22.9901 6.00292 21.5473 6.84567 20.4011 8.2008C19.2752 9.5357 18.7022 11.0998 18.628 12.8528C18.5875 13.7966 18.7426 14.7202 19.0663 15.6102C19.7943 17.6126 21.1158 19.0553 23.0238 19.9318C23.9878 20.37 25.0059 20.5722 26.0643 20.5655C27.224 20.5587 28.3161 20.2959 29.3544 19.77C29.705 19.5879 29.705 19.5879 29.7184 19.9992C29.7253 20.2553 29.7454 20.2756 29.9881 20.2823H33.1164C33.3288 20.2823 33.4367 20.2823 33.4915 20.2285C33.5479 20.1728 33.5479 20.06 33.5479 19.8306ZM25.6328 8.80083C25.8216 8.77386 26.0104 8.75363 26.206 8.76038C27.3858 8.77386 28.4105 9.19185 29.2398 10.0279C29.9679 10.7627 30.3792 11.6661 30.46 12.7179C30.5544 13.9989 30.1635 15.1046 29.3072 16.0214C28.606 16.7697 27.7363 17.2012 26.7183 17.3226C25.7138 17.4372 24.7699 17.2485 23.9272 16.6889C22.5316 15.7652 21.8507 14.4371 21.9518 12.7448C22.0731 10.7156 23.6373 9.0705 25.6328 8.80083Z" fill="white"/>
<path fill-rule="evenodd" clip-rule="evenodd" d="M45.8046 13.8978C45.4136 13.8978 45.4069 13.9045 45.5013 14.2888C45.9193 15.9743 47.3418 17.2755 49.0205 17.4575C50.5307 17.6193 51.7645 17.0597 52.7151 15.8462C52.8095 15.7249 52.9039 15.6035 52.9713 15.4754C53.0657 15.2867 53.2006 15.2597 53.3826 15.2934C53.6278 15.3415 53.8759 15.384 54.123 15.4264C54.2564 15.4491 54.3896 15.472 54.5219 15.4956C55.0209 15.5832 55.5198 15.6709 56.0254 15.7653L56.0407 15.7678C56.0774 15.7738 56.1181 15.7804 56.1535 15.7923C56.3692 15.8462 56.3895 15.8732 56.2951 16.0821C56.0187 16.7024 55.6681 17.2822 55.2367 17.8014C54.104 19.1632 52.6814 20.0532 50.9622 20.397C48.6026 20.8622 46.4451 20.3767 44.5641 18.8261C42.9663 17.5115 42.0628 15.7923 41.8674 13.7091C41.7326 12.2999 41.9887 10.9448 42.6427 9.69082C43.7417 7.5806 45.4541 6.23895 47.7396 5.73331C50.2071 5.19396 52.4387 5.76702 54.3737 7.42553C55.8164 8.66605 56.6322 10.2706 56.8884 12.1651C56.9558 12.6573 56.9895 13.1629 56.9086 13.6618C56.8749 13.8573 56.8614 13.8843 56.6659 13.8978C56.6123 13.9022 56.5615 13.9008 56.5099 13.8993C56.4836 13.8985 56.4572 13.8978 56.4299 13.8978H45.8046ZM52.9443 11.4303C53.0253 11.4303 53.0994 11.4303 53.1803 11.4235C53.2544 11.4167 53.295 11.3763 53.268 11.2955C53.2477 11.2348 53.2208 11.1808 53.1939 11.1269C52.9444 10.5944 52.6005 10.1358 52.1623 9.7515C51.2926 8.97618 50.2745 8.60537 49.1351 8.72673C47.598 8.88853 46.4855 9.71779 45.7912 11.1268C45.6495 11.4167 45.6495 11.4303 45.9799 11.4303H52.9443Z" fill="white"/>
<path d="M58.5756 14.518C58.5749 14.9225 58.5741 15.327 58.5741 15.7315C58.5741 17.1001 58.5741 18.4687 58.5877 19.8238C58.5877 19.8409 58.5874 19.8579 58.5869 19.875C58.5867 19.8849 58.5864 19.8948 58.5862 19.9048C58.5847 19.9586 58.5832 20.0127 58.5877 20.0666C58.5944 20.2351 58.6214 20.262 58.7899 20.2756H61.8642C62.0733 20.2756 62.1795 20.2756 62.2333 20.2225C62.2889 20.1678 62.2889 20.0565 62.2889 19.8307V12.1987C62.2889 11.8886 62.3092 11.5717 62.3631 11.2683C62.6463 9.74467 63.752 8.60529 65.2419 8.28842C65.5183 8.23449 65.5251 8.221 65.4778 7.93784C65.4711 7.89739 65.4644 7.86368 65.4577 7.82997C65.3497 7.176 65.2352 6.5153 65.1206 5.85459C65.0981 5.72873 65.0763 5.60289 65.0547 5.47704C65.0111 5.22534 64.9677 4.97364 64.9183 4.72194C64.8846 4.53991 64.8576 4.52643 64.6824 4.5534C64.4733 4.58711 64.271 4.64778 64.0688 4.70846C60.7787 5.65907 58.5539 8.80081 58.5741 12.0909C58.5786 12.8994 58.5771 13.7079 58.5756 14.5164V14.518Z" fill="white"/>
<path d="M39.8717 13.0617V19.8643C39.8717 20.0757 39.8717 20.1802 39.8194 20.2318C39.7683 20.2824 39.6672 20.2824 39.4672 20.2824H36.1838C36.022 20.2689 35.9883 20.242 35.9749 20.0734C35.9681 19.9925 35.9681 19.9116 35.9681 19.8306V6.32658C35.9681 6.08379 35.9681 5.96414 36.0279 5.90519C36.086 5.8479 36.2006 5.8479 36.4265 5.8479H39.6627C39.8245 5.86138 39.8514 5.88835 39.865 6.06364C39.8694 6.12156 39.868 6.1795 39.8665 6.23936C39.8657 6.27007 39.865 6.30134 39.865 6.33332C39.8717 8.57838 39.8717 10.8235 39.8717 13.0617Z" fill="white"/>
</svg>
