<svg width="50" height="43" viewBox="0 0 50 43" fill="none" xmlns="http://www.w3.org/2000/svg">
<path fill-rule="evenodd" clip-rule="evenodd" d="M40.0861 0.294682L9.01961 9.61459C8.94067 9.63699 8.86388 9.66561 8.78993 9.69983C8.49242 9.83781 8.24063 10.0688 8.0782 10.3669L0.30069 24.6385C0.21795 24.7903 0.163148 24.9499 0.13451 25.1112H0.111115C0.111115 25.1736 0.111737 25.2358 0.112981 25.298C0.108019 25.3901 0.111301 25.482 0.122532 25.5726C0.16727 26.4765 0.34325 27.3691 0.644903 28.2223C0.699659 28.3772 0.758568 28.5308 0.821568 28.6829C1.29061 29.8153 1.97811 30.8442 2.84479 31.7108C3.71146 32.5775 4.74037 33.2649 5.87274 33.7341C7.0051 34.2031 8.21878 34.4445 9.44445 34.4445C10.6701 34.4445 11.8838 34.2031 13.0162 33.7341C14.1486 33.2649 15.1775 32.5775 16.0441 31.7108C16.9108 30.8442 17.5982 29.8153 18.0674 28.6829C18.1304 28.5308 18.1893 28.3772 18.2441 28.2223C18.5459 27.3685 18.7219 26.4751 18.7664 25.5704C18.7773 25.4811 18.7806 25.3909 18.7759 25.3003C18.7772 25.2373 18.7778 25.1742 18.7778 25.1112H18.7543C18.7255 24.9499 18.6708 24.7903 18.588 24.6385L11.7275 12.0503L23.4445 8.53528V39.1112H11C10.1409 39.1112 9.44445 39.8076 9.44445 40.6667C9.44445 41.5259 10.1409 42.2223 11 42.2223H39C39.8591 42.2223 40.5556 41.5259 40.5556 40.6667C40.5556 39.8076 39.8591 39.1112 39 39.1112H26.5556V7.60195L37.3793 4.35481L31.4119 15.3051C31.3291 15.4569 31.2742 15.6165 31.2456 15.7779H31.2222C31.2222 15.8402 31.2229 15.9025 31.2241 15.9647C31.2191 16.0568 31.2224 16.1487 31.2336 16.2392C31.2784 17.1432 31.4543 18.0357 31.7559 18.889C31.8107 19.0439 31.8697 19.1974 31.9327 19.3496C32.4018 20.482 33.0892 21.5109 33.956 22.3775C34.8226 23.2442 35.8514 23.9316 36.9839 24.4008C38.1163 24.8698 39.3299 25.1112 40.5556 25.1112C41.7812 25.1112 42.9948 24.8698 44.1273 24.4008C45.2597 23.9316 46.2886 23.2442 47.1552 22.3775C48.0219 21.5109 48.7093 20.482 49.1785 19.3496C49.2415 19.1974 49.3004 19.0439 49.3552 18.889C49.657 18.0351 49.8331 17.1418 49.8775 16.2371C49.8884 16.1478 49.8917 16.0575 49.887 15.967C49.8883 15.904 49.8889 15.8409 49.8889 15.7779H49.8654C49.8366 15.6165 49.7819 15.4569 49.6991 15.3051L41.9416 1.07108C41.6326 0.463445 40.9547 0.122778 40.2762 0.247487C40.2116 0.259262 40.1482 0.275051 40.0861 0.294682ZM46.4136 15.7779L40.5553 5.02855L34.6973 15.7779H46.4136ZM9.44415 14.3618L15.3025 25.1112H3.5862L9.44415 14.3618ZM14.833 28.2223C14.5618 28.6922 14.2295 29.1256 13.8442 29.5109C13.2664 30.0888 12.5804 30.5471 11.8256 30.8597C11.0707 31.1724 10.2616 31.3334 9.44445 31.3334C8.62733 31.3334 7.81822 31.1724 7.06331 30.8597C6.30839 30.5471 5.62246 30.0888 5.04467 29.5109C4.65934 29.1256 4.32715 28.6922 4.05585 28.2223H14.833ZM44.9553 20.1776C45.3406 19.7923 45.6729 19.3589 45.9442 18.889H35.167C35.4383 19.3589 35.7705 19.7923 36.1558 20.1776C36.7336 20.7555 37.4196 21.2137 38.1745 21.5264C38.9294 21.8391 39.7384 22.0001 40.5556 22.0001C41.3727 22.0001 42.1817 21.8391 42.9367 21.5264C43.6916 21.2137 44.3776 20.7555 44.9553 20.1776Z" fill="white"/>
</svg>
