<svg width="48" height="42" viewBox="0 0 48 42" fill="none" xmlns="http://www.w3.org/2000/svg">
<path fill-rule="evenodd" clip-rule="evenodd" d="M15.1072 4.68576L4.54596 8.91029L5.81839 12.7275L13.1113 10.9042V22.7645C12.707 22.714 12.3116 22.4481 11.8695 22.1509C11.3436 21.7974 10.7516 21.3995 10.0002 21.2665V14.8889L3.77797 16.4445L0.666855 7.11114L16.2224 0.888916H31.7779L47.3335 7.11114L44.2224 16.4445L38.0002 14.8889V19.8272C37.0046 19.5915 35.9317 19.5058 34.889 19.585V10.9042L42.182 12.7275L43.4544 8.91029L32.8931 4.68576C32.3454 5.9916 31.3363 7.00272 30.1477 7.71578C28.3878 8.77185 26.1473 9.25003 24.0002 9.25003C21.853 9.25003 19.6127 8.77185 17.8526 7.71578C16.6642 7.00272 15.6549 5.9916 15.1072 4.68576ZM18.267 4.00003C18.5442 4.39083 18.9395 4.7398 19.4533 5.0481C20.61 5.74209 22.2584 6.13892 24.0002 6.13892C25.7419 6.13892 27.3905 5.74209 28.547 5.0481C29.0608 4.7398 29.4561 4.39083 29.7333 4.00003H18.267Z" fill="white"/>
<path d="M25.5907 35.1111H22.2867C22.5896 36.1253 22.5187 37.3562 22.1246 38.1959L22.1119 38.2222H25.8777C25.5926 37.2142 25.4961 36.1541 25.5907 35.1111Z" fill="white"/>
<path d="M35.6667 25.7777C33.5189 25.7777 31.7778 27.5189 31.7778 29.6666C31.7778 30.5906 32.0982 31.4356 32.6352 32.1026L33.5307 33.2152L32.4988 34.2023C32.0526 34.629 31.7778 35.2256 31.7778 35.8889C31.7778 37.1775 32.8225 38.2222 34.1111 38.2222C34.9702 38.2222 35.6667 38.9186 35.6667 39.7777C35.6667 40.6369 34.9702 41.3333 34.1111 41.3333C31.1042 41.3333 28.6667 38.8957 28.6667 35.8889C28.6667 34.8228 28.974 33.8274 29.5035 32.9877C28.97 31.9992 28.6667 30.8672 28.6667 29.6666C28.6667 25.8006 31.8008 22.6666 35.6667 22.6666C36.8672 22.6666 37.9992 22.9698 38.9878 23.5035C39.8275 22.974 40.823 22.6666 41.8889 22.6666C44.8959 22.6666 47.3333 25.1042 47.3333 28.1111C47.3333 28.9702 46.6369 29.6666 45.7778 29.6666C44.9186 29.6666 44.2222 28.9702 44.2222 28.1111C44.2222 26.8224 43.1777 25.7777 41.8889 25.7777C41.2256 25.7777 40.6292 26.0524 40.2025 26.4986L39.2152 27.5307L38.1028 26.635C37.4358 26.098 36.5908 25.7777 35.6667 25.7777Z" fill="white"/>
<path d="M41.0361 40.7116C41.7549 41.1822 42.7191 40.9807 43.1896 40.2619C43.66 39.5431 43.4587 38.579 42.7399 38.1086L38.334 35.2247C37.6151 34.7543 36.651 34.9556 36.1805 35.6744C35.7101 36.3932 35.9113 37.3574 36.6302 37.8279L41.0361 40.7116Z" fill="white"/>
<path d="M46.2455 37.4832C45.5143 37.9341 44.5559 37.7069 44.1049 36.9756L41.3412 32.4933C40.8902 31.762 41.1175 30.8038 41.8487 30.3528C42.58 29.9019 43.5384 30.1291 43.9893 30.8604L46.7531 35.3426C47.2041 36.0739 46.9768 37.0322 46.2455 37.4832Z" fill="white"/>
<path d="M18.939 31.9335C19.5314 31.3112 19.5071 30.3267 18.8849 29.7343C18.2626 29.1419 17.278 29.1662 16.6856 29.7884C15.4826 31.0522 14.4889 31.4941 13.7568 31.5842C13.047 31.6714 12.3579 31.456 11.6775 30.9313C10.4939 30.0185 8.91923 29.3722 7.17393 29.4544C5.39327 29.5384 3.61587 30.3727 2.06516 32.0998C1.49119 32.739 1.54411 33.7226 2.18335 34.2964C2.82259 34.8704 3.80609 34.8175 4.38006 34.1784C5.45028 32.9863 6.47768 32.6018 7.32043 32.5621C8.19852 32.5208 9.06586 32.846 9.77755 33.3948C10.9658 34.3112 12.4539 34.8788 14.1365 34.6719C15.7971 34.4677 17.4114 33.5381 18.939 31.9335Z" fill="white"/>
<path d="M18.8849 24.1412C19.5071 24.7335 19.5314 25.7182 18.939 26.3404C17.4114 27.945 15.7971 28.8747 14.1365 29.0788C12.4539 29.2858 10.9658 28.7181 9.77755 27.8017C9.06586 27.2529 8.19852 26.9276 7.32043 26.969C6.47768 27.0088 5.45028 27.3934 4.38006 28.5852C3.80609 29.2244 2.82259 29.2773 2.18335 28.7034C1.54411 28.1294 1.49119 27.1459 2.06516 26.5067C3.61587 24.7796 5.39327 23.9453 7.17393 23.8613C8.91923 23.7792 10.4939 24.4254 11.6775 25.3382C12.3579 25.8628 13.047 26.0783 13.7568 25.991C14.4889 25.901 15.4826 25.459 16.6856 24.1953C17.278 23.5731 18.2626 23.5488 18.8849 24.1412Z" fill="white"/>
<path d="M18.939 37.5068C19.5314 36.8846 19.5071 35.9001 18.8849 35.3077C18.2626 34.7154 17.278 34.7395 16.6856 35.3618C15.4826 36.6256 14.4889 37.0675 13.7568 37.1576C13.047 37.2448 12.3579 37.0294 11.6775 36.5046C10.4939 35.5919 8.91923 34.9456 7.17393 35.0279C5.39327 35.1119 3.61587 35.9461 2.06516 37.6732C1.49119 38.3124 1.54411 39.2958 2.18335 39.8698C2.82259 40.4438 3.80609 40.391 4.38006 39.7518C5.45028 38.5598 6.47768 38.1752 7.32043 38.1356C8.19852 38.0942 9.06586 38.4193 9.77755 38.9682C10.9658 39.8846 12.4539 40.4522 14.1365 40.2454C15.7971 40.0411 17.4114 39.1115 18.939 37.5068Z" fill="white"/>
</svg>
