<svg width="359" height="180" viewBox="0 0 359 180" fill="none" xmlns="http://www.w3.org/2000/svg">
<path fill-rule="evenodd" clip-rule="evenodd" d="M196.77 0.0095093C200.207 -0.189715 204.714 2.74884 204.714 8.12789C204.739 12.5606 201.352 16.2961 196.646 16.2463C192.113 16.2214 188.701 12.6602 188.701 8.103C188.676 3.19709 192.835 -0.189715 196.77 0.0095093ZM33.5381 74.9028L36.2247 57.8248H45.5841L46.7974 50.1572H37.4379L38.9978 40.3984H48.3573L49.5706 32.7307H40.2111L42.7243 16.7855H34.2314L31.7182 32.7307H21.8388L24.352 16.7855H15.8591L13.3459 32.7307H3.98645L2.77318 40.3984H12.1327L10.5727 50.1572H1.21327L0 57.8248H9.35948L6.67296 74.9028H15.1658L17.8523 57.8248H27.7318L25.0453 74.9028H33.5381ZM28.9451 50.1572H19.0656L20.6255 40.3984H30.505L28.9451 50.1572ZM330.636 20.5239C314.827 20.5239 302.628 31.9762 302.628 48.1588C302.628 64.2169 314.827 75.9182 330.636 75.9182C346.446 75.9182 358.645 64.2169 358.645 48.1588C358.645 31.9762 346.446 20.5239 330.636 20.5239ZM330.636 64.9638C321.051 64.9638 315.076 58.3663 315.076 48.2833C315.076 36.3331 323.043 31.4783 330.636 31.4783C338.23 31.4783 346.197 36.3331 346.197 48.2833C346.197 58.3663 340.221 64.9638 330.636 64.9638ZM118.4 73.299V39.8542C118.4 28.6231 118.4 17.4167 118.35 6.18548C118.35 5.3759 118.35 4.97749 118.151 4.78151C117.958 4.59167 117.578 4.59167 116.831 4.59167H104.205C102.611 4.59167 102.611 4.59167 102.611 6.2602V31.7858V31.7859C102.611 32.5246 102.611 32.8919 102.428 33.0745C102.246 33.255 101.885 33.255 101.167 33.255H73.7738C73.0516 33.255 72.6905 33.255 72.51 33.0745C72.3294 32.894 72.3294 32.5328 72.3294 31.8107V7.55514C72.3294 7.34114 72.3321 7.12443 72.3349 6.90678L72.3349 6.90399C72.3405 6.46411 72.3461 6.02032 72.3294 5.58782C72.3045 4.74109 72.2049 4.6166 71.3831 4.6166H57.7611C56.7152 4.6166 56.6156 4.74109 56.5907 5.81192V73.4983C56.5907 73.7473 56.5907 74.0214 56.6156 74.2704C56.6405 74.6438 56.8397 74.8928 57.2382 74.8928C57.537 74.9176 57.811 74.9176 58.1098 74.9176H70.7356C71.545 74.9176 71.9496 74.9176 72.152 74.7153C72.3543 74.513 72.3543 74.1085 72.3543 73.299V47.9726C72.3543 46.3788 72.3792 46.3788 73.8983 46.3788H100.993C101.827 46.3788 102.244 46.3788 102.453 46.5873C102.661 46.7959 102.661 47.2131 102.661 48.0474V73.4735C102.661 74.868 102.711 74.9176 104.081 74.9176H116.806C117.599 74.9176 117.997 74.9176 118.198 74.7186C118.4 74.5171 118.4 74.1125 118.4 73.299ZM180.508 48.3214V73.2492V73.2494C180.508 74.0965 180.508 74.5133 180.3 74.7189C180.098 74.9178 179.699 74.9178 178.915 74.9178H167.36C166.463 74.893 166.389 74.8182 166.363 73.8719C166.338 73.1034 166.326 72.7237 166.152 72.6232C165.982 72.5251 165.659 72.6932 165.019 73.0254C161.184 74.9678 157.15 75.9389 152.866 75.9637C148.956 75.9885 145.196 75.2416 141.635 73.623C134.587 70.3854 129.706 65.0564 127.017 57.6601C125.821 54.3728 125.249 50.9611 125.398 47.4748C125.672 41 127.789 35.2225 131.948 30.2917C136.181 25.2861 141.51 22.1733 147.886 21.0028C153.987 19.8822 159.789 20.8036 165.318 23.6674C166.012 24.0269 166.36 24.2075 166.542 24.1016C166.724 23.9947 166.737 23.5963 166.762 22.7959C166.787 21.7499 166.862 21.6752 167.883 21.6503H179.338C180.459 21.6503 180.558 21.7499 180.558 22.8955V36.1439C180.508 40.2031 180.508 44.2624 180.508 48.3214ZM153.389 32.3586C152.667 32.3337 151.969 32.4084 151.272 32.508C143.901 33.5041 138.124 39.5807 137.675 47.0762C137.302 53.327 139.817 58.2329 144.972 61.6446C148.085 63.7115 151.571 64.4088 155.282 63.9853C159.042 63.537 162.254 61.9432 164.844 59.1791C168.007 55.7925 169.451 51.7083 169.103 46.9766C168.804 43.0917 167.285 39.7548 164.595 37.0404C161.532 33.9524 157.747 32.4084 153.389 32.3586ZM225.782 51.335C224.338 51.335 224.313 51.3598 224.662 52.7792C226.205 59.0051 231.46 63.8113 237.661 64.4837C243.239 65.0813 247.796 63.0144 251.308 58.532C251.656 58.0837 252.005 57.6354 252.254 57.1623C252.603 56.4651 253.101 56.3654 253.773 56.4899C254.679 56.6677 255.595 56.8248 256.508 56.9811C257.001 57.0652 257.493 57.1497 257.982 57.2368C259.825 57.5606 261.667 57.8844 263.535 58.233L263.591 58.2423L263.595 58.2429C263.73 58.2649 263.878 58.2893 264.008 58.3327C264.805 58.532 264.88 58.6316 264.531 59.4033C263.51 61.6944 262.215 63.8361 260.622 65.7537C256.438 70.7841 251.183 74.0714 244.833 75.3414C236.117 77.0597 228.148 75.2666 221.2 69.5389C215.298 64.6831 211.961 58.3327 211.239 50.6378C210.741 45.4329 211.687 40.4273 214.103 35.7955C218.162 28.0008 224.487 23.0451 232.929 21.1774C242.044 19.1851 250.287 21.3019 257.434 27.428C262.763 32.0102 265.776 37.937 266.723 44.935C266.972 46.7529 267.096 48.6205 266.797 50.4633C266.673 51.1853 266.623 51.285 265.901 51.335C265.703 51.3513 265.515 51.3461 265.324 51.3406C265.227 51.3376 265.13 51.335 265.029 51.335H225.782ZM252.154 42.2205C252.453 42.2205 252.727 42.2205 253.026 42.1956C253.3 42.1704 253.449 42.0211 253.35 41.7225C253.275 41.4984 253.176 41.2991 253.076 41.1001C252.155 39.1329 250.884 37.439 249.266 36.0196C246.053 33.1557 242.293 31.7861 238.084 32.2343C232.406 32.832 228.297 35.8951 225.732 41.0998C225.209 42.1705 225.209 42.2205 226.43 42.2205H252.154ZM272.954 54.1195L272.955 53.6261V53.6201C272.96 50.6337 272.966 47.6472 272.949 44.6608C272.874 32.5081 281.092 20.9033 293.245 17.392C293.992 17.1679 294.739 16.9438 295.511 16.8192C296.159 16.7196 296.258 16.7694 296.383 17.4418C296.562 18.3565 296.721 19.2711 296.879 20.1858L296.886 20.231C296.967 20.6958 297.047 21.1606 297.13 21.6255C297.553 24.066 297.976 26.5065 298.375 28.9221L298.376 28.9244C298.4 29.0481 298.425 29.172 298.45 29.3205C298.624 30.3664 298.599 30.4163 297.578 30.6155C292.075 31.7859 287.991 35.9945 286.945 41.6225C286.745 42.7432 286.671 43.9135 286.671 45.0591V73.2497C286.671 74.084 286.671 74.4948 286.465 74.6971C286.266 74.8931 285.874 74.8931 285.102 74.8931H273.746C273.123 74.8431 273.024 74.7434 272.999 74.121C272.982 73.9221 272.988 73.7224 272.993 73.5234L272.995 73.4684L272.996 73.4134C272.998 73.3504 272.999 73.2874 272.999 73.2245C272.949 68.2189 272.949 63.1637 272.949 58.1085C272.949 56.7788 272.951 55.4492 272.954 54.1195ZM203.867 48.2467V73.3738C203.867 74.1544 203.867 74.5405 203.674 74.7313C203.485 74.918 203.112 74.918 202.373 74.918H190.245C189.647 74.8684 189.523 74.7687 189.473 74.1459C189.448 73.8475 189.448 73.5487 189.448 73.2499V73.2494V23.3688C189.448 22.472 189.448 22.03 189.669 21.8123C189.884 21.6006 190.307 21.6006 191.142 21.6006H203.095C203.693 21.6504 203.792 21.7501 203.842 22.3975C203.859 22.6115 203.854 22.8255 203.848 23.0466C203.845 23.16 203.842 23.2755 203.842 23.3937C203.867 31.6813 203.867 39.9689 203.867 48.2315V48.2467ZM218.837 180H206.638V158.2C196.679 158.325 189.708 155.337 185.102 151.354C180.248 147.37 176.264 141.146 176.264 131.063C176.264 120.233 181.492 113.76 184.978 110.897C191.326 105.42 199.791 104.051 206.638 104.051V85.9698H218.837V104.051C225.683 104.051 234.148 105.42 240.497 110.897C243.858 114.009 249.21 120.109 249.21 131.063C249.21 141.146 245.227 147.37 240.372 151.354C235.766 155.337 228.795 158.325 218.837 158.2V180ZM194.812 144.134C197.8 146.25 202.281 147.37 206.638 147.246V115.005C203.277 115.005 198.546 115.628 195.185 117.744C193.318 118.74 188.712 122.723 188.712 131.063C188.712 138.781 192.571 142.516 194.812 144.134ZM230.289 117.744C226.928 115.628 222.198 115.005 218.837 115.005V147.246C223.194 147.37 227.675 146.25 230.663 144.134C232.903 142.516 236.762 138.781 236.762 131.063C236.762 122.723 232.156 118.74 230.289 117.744ZM84.3445 158.947C81.4814 158.947 74.137 158.076 68.6598 151.229V180H56.4606V104.922H68.6598V110.648C73.1411 105.296 78.8673 103.553 84.22 103.553C98.0374 103.553 109.739 114.258 109.739 130.814C109.739 148.366 96.7926 158.947 84.3445 158.947ZM97.2905 131.312C97.2905 121.976 91.5644 114.507 82.7262 114.507C75.1329 114.507 67.9129 119.984 67.9129 131.437C67.9129 142.391 75.1329 147.993 82.7262 147.993C91.5644 147.993 97.2905 140.399 97.2905 131.312ZM27.8144 157.329H15.6152V104.922H47.7314V116.125H27.8144V157.329ZM156.92 111.022C151.816 104.673 145.219 103.553 141.36 103.553C127.542 103.553 115.841 114.134 115.841 131.063C115.841 145.503 124.928 158.947 141.235 158.947C144.845 158.947 151.692 158.076 156.92 151.852V157.329H169.119V104.922H156.92V111.022ZM142.854 114.507C150.447 114.507 157.667 119.984 157.667 131.437C157.667 142.391 150.447 147.993 142.854 147.993C134.015 147.993 128.289 140.399 128.289 131.312C128.289 121.976 134.015 114.507 142.854 114.507ZM256.312 104.922V161.312L292.162 126.831V157.329H304.361V100.192L268.511 134.673V104.922H256.312ZM325.416 157.329H311.101L327.533 136.54C324.047 136.042 321.184 134.424 319.192 132.557C315.831 129.196 314.835 125.586 314.835 121.727C314.835 118.366 315.582 113.511 319.69 109.652C324.171 105.296 329.524 104.922 334.877 104.922H354.42V157.329H342.221V138.034H339.732L325.416 157.329ZM335.001 128.076H342.221V115.379H335.126C332.761 115.379 330.645 115.503 328.777 116.499C327.159 117.495 325.79 119.362 325.79 121.727C325.79 124.341 326.91 125.959 328.279 126.831C329.773 127.827 332.014 128.076 335.001 128.076Z" fill="white"/>
</svg>
